# xmcd
#
# Track frame offsets: 
#        150
#        17313
#        32108
#        47093
#        63578
#        76540
#        91065
#        107360
#        121245
#        135813
#        150485
#        165458
#        183605
#        199463
#
# Disc length: 2854 seconds
#
# Revision: 2
# Processed by: cddbd v1.5.2PL0 Copyright (c) Steve Scherf et al.
# Submitted via: ExactAudioCopy v0.95a5
#
DISCID=9d0b240e
DTITLE=Various Artist - HOT HITS COUNTRY VOL 26
DYEAR=1900
DGENRE=Country
TTITLE0=JOE DIFFIE - Prop Me Up Beside The Jukebox (If I Die)
TTITLE1=CONFEDERATE RAILROAD - Trashy Women
TTITLE2=AARON NEVILLE - Grand Tour
TTITLE3=JOHN MICHAEL MONTGOMERY - Beer And Bones
TTITLE4=RANDY TRAVIS - Cowboy Boogie
TTITLE5=VINCE GILL - One More Last Chance
TTITLE6=MCBRIDE and THE RIDE - Hurry Sundown
TTITLE7=GEORGE STRAIT - Easy Come, Easy Go
TTITLE8=DOUG STONE - Why Didn't I Think Of That
TTITLE9=TRAVIS TRITT - Looking Out For Number One
TTITLE10=STEVE WARINER - If I Didn't Love You
TTITLE11=BILLY RAY CYRUS - In The Heart Of A Woman
TTITLE12=AARON TIPPIN - Working Man's Ph.D.
TTITLE13=COLLIN RAYE - That Was A River
EXTD=
EXTT0=Diffie - Joe
EXTT1=Confederate Railroad
EXTT2=Neville - Aaron
EXTT3=Montgomery - John Michael
EXTT4=Travis - Randy
EXTT5=Gill - Vince
EXTT6=McBride and The Ride
EXTT7=Strait - George
EXTT8=Stone - Doug
EXTT9=Tritt - Travis
EXTT10=Wariner - Steve
EXTT11=Cyrus - Billy Ray
EXTT12=Tippin - Aaron
EXTT13=Raye - Collin
PLAYORDER=
